<svg xmlns="http://www.w3.org/2000/svg" xmlns:xlink="http://www.w3.org/1999/xlink" width="500" zoomAndPan="magnify" viewBox="0 0 375 374.999991" height="500" preserveAspectRatio="xMidYMid meet" version="1.0"><defs><g/></defs><g fill="#ff66b2" fill-opacity="1"><g transform="translate(95.924631, 234.692694)"><g><path d="M 51.234375 1.75 C 46.015625 1.75 41.492188 0.535156 37.671875 -1.890625 C 33.859375 -4.316406 31.1875 -7.640625 29.65625 -11.859375 L 0 -94.375 L 30.203125 -94.375 L 50.28125 -27.09375 C 50.46875 -26.738281 50.625 -26.445312 50.75 -26.21875 C 50.882812 -26 51.046875 -25.890625 51.234375 -25.890625 C 51.503906 -25.890625 51.726562 -25.976562 51.90625 -26.15625 C 52.082031 -26.332031 52.21875 -26.644531 52.3125 -27.09375 L 71.984375 -94.375 L 102.453125 -94.375 L 72.9375 -11.859375 C 71.5 -7.640625 68.847656 -4.316406 64.984375 -1.890625 C 61.117188 0.535156 56.535156 1.75 51.234375 1.75 Z M 51.234375 1.75 "/></g></g></g><g fill="#ff66b2" fill-opacity="1"><g transform="translate(187.31895, 234.692694)"><g><path d="M 32.078125 0 L 32.078125 -25.078125 C 26.597656 -26.691406 21.90625 -29.207031 18 -32.625 C 14.09375 -36.039062 11.082031 -40.285156 8.96875 -45.359375 C 6.851562 -50.441406 5.796875 -56.171875 5.796875 -62.546875 L 5.796875 -94.375 L 33.84375 -94.375 L 33.84375 -61.46875 C 33.84375 -58.6875 34.359375 -56.191406 35.390625 -53.984375 C 36.421875 -51.785156 37.898438 -50.078125 39.828125 -48.859375 C 41.765625 -47.648438 44.035156 -47.046875 46.640625 -47.046875 C 49.335938 -47.046875 51.648438 -47.648438 53.578125 -48.859375 C 55.515625 -50.078125 57.019531 -51.785156 58.09375 -53.984375 C 59.175781 -56.191406 59.71875 -58.6875 59.71875 -61.46875 L 59.71875 -94.375 L 87.765625 -94.375 L 87.765625 -62.546875 C 87.765625 -56.171875 86.6875 -50.441406 84.53125 -45.359375 C 82.375 -40.285156 79.316406 -36.039062 75.359375 -32.625 C 71.398438 -29.207031 66.679688 -26.691406 61.203125 -25.078125 L 61.203125 0 Z M 32.078125 0 "/></g></g></g><g fill="#ff66b2" fill-opacity="1"><g transform="translate(269.690245, 234.692694)"><g/></g></g></svg>