<svg xmlns="http://www.w3.org/2000/svg" xmlns:xlink="http://www.w3.org/1999/xlink" width="500" zoomAndPan="magnify" viewBox="0 0 375 374.999991" height="500" preserveAspectRatio="xMidYMid meet" version="1.0"><defs><g/><clipPath id="f374ac73c7"><path d="M 66.4375 230.125 L 228.707031 230.125 L 228.707031 235.652344 L 66.4375 235.652344 Z M 66.4375 230.125 " clip-rule="nonzero"/></clipPath></defs><g fill="#ff66b2" fill-opacity="1"><g transform="translate(46.162506, 220.935864)"><g><path d="M 30.453125 -15.5625 L 42.21875 -54.28125 L 59.921875 -54.28125 L 40.65625 0 L 20.140625 0 L 0.875 -54.28125 L 18.671875 -54.28125 Z M 30.453125 -15.5625 "/></g></g></g><g fill="#ff66b2" fill-opacity="1"><g transform="translate(107.050804, 220.935864)"><g><path d="M 61.484375 -54.28125 L 27.4375 25.78125 L 9.53125 25.78125 L 21.984375 -1.84375 L -0.09375 -54.28125 L 18.484375 -54.28125 L 31.03125 -20.328125 L 43.484375 -54.28125 Z M 61.484375 -54.28125 "/></g></g></g><g fill="#ff66b2" fill-opacity="1"><g transform="translate(168.522693, 220.935864)"><g><path d="M 39.109375 -54.859375 C 45.460938 -54.859375 50.535156 -52.800781 54.328125 -48.6875 C 58.117188 -44.570312 60.015625 -38.914062 60.015625 -31.71875 L 60.015625 0 L 43.484375 0 L 43.484375 -29.46875 C 43.484375 -33.101562 42.539062 -35.925781 40.65625 -37.9375 C 38.78125 -39.945312 36.253906 -40.953125 33.078125 -40.953125 C 29.898438 -40.953125 27.367188 -39.945312 25.484375 -37.9375 C 23.609375 -35.925781 22.671875 -33.101562 22.671875 -29.46875 L 22.671875 0 L 6.03125 0 L 6.03125 -54.28125 L 22.671875 -54.28125 L 22.671875 -47.078125 C 24.359375 -49.484375 26.625 -51.378906 29.46875 -52.765625 C 32.320312 -54.160156 35.535156 -54.859375 39.109375 -54.859375 Z M 39.109375 -54.859375 "/></g></g></g><g fill="#ff66b2" fill-opacity="1"><g transform="translate(234.079745, 220.935864)"><g><path d="M 2.71875 -27.234375 C 2.71875 -32.816406 3.769531 -37.710938 5.875 -41.921875 C 7.988281 -46.140625 10.859375 -49.382812 14.484375 -51.65625 C 18.117188 -53.925781 22.175781 -55.0625 26.65625 -55.0625 C 30.476562 -55.0625 33.832031 -54.28125 36.71875 -52.71875 C 39.601562 -51.164062 41.828125 -49.125 43.390625 -46.59375 L 43.390625 -54.28125 L 60.015625 -54.28125 L 60.015625 0 L 43.390625 0 L 43.390625 -7.6875 C 41.765625 -5.15625 39.507812 -3.109375 36.625 -1.546875 C 33.738281 0.00390625 30.382812 0.78125 26.5625 0.78125 C 22.144531 0.78125 18.117188 -0.367188 14.484375 -2.671875 C 10.859375 -4.972656 7.988281 -8.25 5.875 -12.5 C 3.769531 -16.75 2.71875 -21.660156 2.71875 -27.234375 Z M 43.390625 -27.140625 C 43.390625 -31.296875 42.238281 -34.570312 39.9375 -36.96875 C 37.632812 -39.363281 34.828125 -40.5625 31.515625 -40.5625 C 28.210938 -40.5625 25.410156 -39.378906 23.109375 -37.015625 C 20.804688 -34.648438 19.65625 -31.390625 19.65625 -27.234375 C 19.65625 -23.085938 20.804688 -19.796875 23.109375 -17.359375 C 25.410156 -14.929688 28.210938 -13.71875 31.515625 -13.71875 C 34.828125 -13.71875 37.632812 -14.914062 39.9375 -17.3125 C 42.238281 -19.71875 43.390625 -22.992188 43.390625 -27.140625 Z M 43.390625 -27.140625 "/></g></g></g><g fill="#ff66b2" fill-opacity="1"><g transform="translate(300.123137, 220.935864)"><g><path d="M 22.671875 -71.984375 L 22.671875 0 L 6.03125 0 L 6.03125 -71.984375 Z M 22.671875 -71.984375 "/></g></g></g><g fill="#ff66b2" fill-opacity="1"><g transform="translate(328.818738, 220.935864)"><g/></g></g><g fill="#ff66b2" fill-opacity="1"><g transform="translate(254.416227, 235.535635)"><g><path d="M 2.828125 -4.546875 C 3.210938 -4.546875 3.550781 -4.445312 3.84375 -4.25 C 4.144531 -4.050781 4.375 -3.773438 4.53125 -3.421875 C 4.695312 -3.078125 4.78125 -2.675781 4.78125 -2.21875 C 4.78125 -1.769531 4.695312 -1.367188 4.53125 -1.015625 C 4.375 -0.660156 4.144531 -0.382812 3.84375 -0.1875 C 3.550781 0 3.210938 0.09375 2.828125 0.09375 C 2.566406 0.09375 2.332031 0.046875 2.125 -0.046875 C 1.925781 -0.140625 1.738281 -0.3125 1.5625 -0.5625 L 1.5625 1.609375 L 0.484375 1.609375 L 0.484375 -4.453125 L 1.5625 -4.453125 L 1.5625 -3.890625 C 1.738281 -4.140625 1.925781 -4.3125 2.125 -4.40625 C 2.332031 -4.5 2.566406 -4.546875 2.828125 -4.546875 Z M 2.578125 -3.625 C 2.242188 -3.625 1.96875 -3.492188 1.75 -3.234375 C 1.53125 -2.972656 1.421875 -2.632812 1.421875 -2.21875 C 1.421875 -1.8125 1.53125 -1.476562 1.75 -1.21875 C 1.96875 -0.957031 2.242188 -0.828125 2.578125 -0.828125 C 2.921875 -0.828125 3.191406 -0.957031 3.390625 -1.21875 C 3.597656 -1.488281 3.703125 -1.820312 3.703125 -2.21875 C 3.703125 -2.625 3.597656 -2.957031 3.390625 -3.21875 C 3.191406 -3.488281 2.921875 -3.625 2.578125 -3.625 Z M 2.578125 -3.625 "/></g></g></g><g fill="#ff66b2" fill-opacity="1"><g transform="translate(264.455389, 235.535635)"><g><path d="M 2.1875 0 L 1.5 0 C 1.175781 0 0.921875 -0.0703125 0.734375 -0.21875 C 0.554688 -0.375 0.46875 -0.625 0.46875 -0.96875 L 0.46875 -6.0625 L 1.546875 -6.0625 L 1.546875 -1.296875 C 1.546875 -1.148438 1.570312 -1.046875 1.625 -0.984375 C 1.675781 -0.921875 1.769531 -0.890625 1.90625 -0.890625 L 2.1875 -0.890625 Z M 2.1875 0 "/></g></g></g><g fill="#ff66b2" fill-opacity="1"><g transform="translate(271.786192, 235.535635)"><g><path d="M 1.765625 0.09375 C 1.347656 0.09375 1 -0.0195312 0.71875 -0.25 C 0.445312 -0.476562 0.3125 -0.800781 0.3125 -1.21875 C 0.3125 -1.457031 0.359375 -1.660156 0.453125 -1.828125 C 0.546875 -1.992188 0.664062 -2.128906 0.8125 -2.234375 C 0.957031 -2.335938 1.117188 -2.414062 1.296875 -2.46875 C 1.484375 -2.53125 1.671875 -2.582031 1.859375 -2.625 L 3.1875 -2.859375 C 3.175781 -3.140625 3.101562 -3.351562 2.96875 -3.5 C 2.832031 -3.632812 2.632812 -3.703125 2.375 -3.703125 C 2.175781 -3.703125 2 -3.640625 1.84375 -3.515625 C 1.6875 -3.398438 1.585938 -3.238281 1.546875 -3.03125 L 0.46875 -3.03125 C 0.53125 -3.382812 0.65625 -3.671875 0.84375 -3.890625 C 1.03125 -4.109375 1.257812 -4.269531 1.53125 -4.375 C 1.800781 -4.488281 2.082031 -4.546875 2.375 -4.546875 C 2.632812 -4.546875 2.882812 -4.507812 3.125 -4.4375 C 3.363281 -4.363281 3.566406 -4.25 3.734375 -4.09375 C 3.910156 -3.9375 4.035156 -3.757812 4.109375 -3.5625 C 4.179688 -3.363281 4.222656 -3.15625 4.234375 -2.9375 C 4.242188 -2.726562 4.25 -2.519531 4.25 -2.3125 L 4.25 0 L 3.1875 0 L 3.1875 -0.609375 C 3.070312 -0.410156 2.9375 -0.257812 2.78125 -0.15625 C 2.644531 -0.0703125 2.488281 -0.0078125 2.3125 0.03125 C 2.144531 0.0703125 1.960938 0.09375 1.765625 0.09375 Z M 2.03125 -0.75 C 2.238281 -0.75 2.429688 -0.789062 2.609375 -0.875 C 2.835938 -1 2.992188 -1.15625 3.078125 -1.34375 C 3.160156 -1.539062 3.203125 -1.785156 3.203125 -2.078125 L 2.140625 -1.859375 C 1.984375 -1.835938 1.859375 -1.804688 1.765625 -1.765625 C 1.671875 -1.722656 1.59375 -1.671875 1.53125 -1.609375 C 1.476562 -1.566406 1.4375 -1.515625 1.40625 -1.453125 C 1.382812 -1.398438 1.375 -1.335938 1.375 -1.265625 C 1.375 -1.097656 1.4375 -0.96875 1.5625 -0.875 C 1.6875 -0.789062 1.84375 -0.75 2.03125 -0.75 Z M 2.03125 -0.75 "/></g></g></g><g fill="#ff66b2" fill-opacity="1"><g transform="translate(281.412357, 235.535635)"><g><path d="M 2.765625 0 L 1.875 0 C 1.550781 0 1.296875 -0.0703125 1.109375 -0.21875 C 0.929688 -0.375 0.84375 -0.625 0.84375 -0.96875 L 0.84375 -3.59375 L 0.1875 -3.59375 L 0.1875 -4.453125 L 0.84375 -4.453125 L 0.84375 -6.0625 L 1.90625 -6.0625 L 1.90625 -4.453125 L 2.765625 -4.453125 L 2.765625 -3.59375 L 1.90625 -3.59375 L 1.90625 -1.296875 C 1.90625 -1.179688 1.925781 -1.082031 1.96875 -1 C 2.007812 -0.925781 2.113281 -0.890625 2.28125 -0.890625 L 2.765625 -0.890625 Z M 2.765625 0 "/></g></g></g><g fill="#ff66b2" fill-opacity="1"><g transform="translate(289.386501, 235.535635)"><g><path d="M 1.9375 0 L 0.859375 0 L 0.859375 -3.59375 L 0.1875 -3.59375 L 0.1875 -4.453125 L 0.859375 -4.453125 L 0.859375 -4.90625 C 0.859375 -5.28125 0.960938 -5.566406 1.171875 -5.765625 C 1.378906 -5.960938 1.6875 -6.0625 2.09375 -6.0625 L 2.75 -6.0625 L 2.75 -5.203125 L 2.34375 -5.203125 C 2.226562 -5.203125 2.128906 -5.171875 2.046875 -5.109375 C 1.972656 -5.046875 1.9375 -4.925781 1.9375 -4.75 L 1.9375 -4.453125 L 2.75 -4.453125 L 2.75 -3.59375 L 1.9375 -3.59375 Z M 1.9375 0 "/></g></g></g><g fill="#ff66b2" fill-opacity="1"><g transform="translate(297.241502, 235.535635)"><g><path d="M 2.578125 0.09375 C 2.128906 0.09375 1.734375 -0.00390625 1.390625 -0.203125 C 1.046875 -0.398438 0.773438 -0.675781 0.578125 -1.03125 C 0.390625 -1.382812 0.296875 -1.789062 0.296875 -2.25 C 0.296875 -2.695312 0.390625 -3.09375 0.578125 -3.4375 C 0.773438 -3.78125 1.046875 -4.050781 1.390625 -4.25 C 1.734375 -4.445312 2.128906 -4.546875 2.578125 -4.546875 C 3.023438 -4.546875 3.421875 -4.445312 3.765625 -4.25 C 4.109375 -4.050781 4.375 -3.78125 4.5625 -3.4375 C 4.757812 -3.09375 4.859375 -2.695312 4.859375 -2.25 C 4.859375 -1.789062 4.765625 -1.382812 4.578125 -1.03125 C 4.390625 -0.6875 4.125 -0.410156 3.78125 -0.203125 C 3.4375 -0.00390625 3.035156 0.09375 2.578125 0.09375 Z M 2.578125 -0.828125 C 2.929688 -0.828125 3.210938 -0.957031 3.421875 -1.21875 C 3.640625 -1.488281 3.75 -1.832031 3.75 -2.25 C 3.75 -2.519531 3.695312 -2.753906 3.59375 -2.953125 C 3.5 -3.160156 3.363281 -3.320312 3.1875 -3.4375 C 3.019531 -3.5625 2.816406 -3.625 2.578125 -3.625 C 2.347656 -3.625 2.144531 -3.566406 1.96875 -3.453125 C 1.789062 -3.335938 1.648438 -3.175781 1.546875 -2.96875 C 1.441406 -2.757812 1.390625 -2.519531 1.390625 -2.25 C 1.390625 -1.832031 1.5 -1.488281 1.71875 -1.21875 C 1.945312 -0.957031 2.234375 -0.828125 2.578125 -0.828125 Z M 2.578125 -0.828125 "/></g></g></g><g fill="#ff66b2" fill-opacity="1"><g transform="translate(307.352143, 235.535635)"><g><path d="M 1.5625 0 L 0.484375 0 L 0.484375 -4.453125 L 1.5625 -4.453125 L 1.5625 -3.921875 C 1.726562 -4.148438 1.914062 -4.3125 2.125 -4.40625 C 2.332031 -4.5 2.566406 -4.546875 2.828125 -4.546875 L 2.953125 -4.546875 L 2.953125 -3.515625 L 2.703125 -3.515625 C 2.523438 -3.515625 2.367188 -3.488281 2.234375 -3.4375 C 2.109375 -3.394531 2 -3.332031 1.90625 -3.25 C 1.789062 -3.132812 1.703125 -2.984375 1.640625 -2.796875 C 1.585938 -2.609375 1.5625 -2.363281 1.5625 -2.0625 Z M 1.5625 0 "/></g></g></g><g fill="#ff66b2" fill-opacity="1"><g transform="translate(315.389819, 235.535635)"><g><path d="M 1.5625 0 L 0.484375 0 L 0.484375 -4.453125 L 1.5625 -4.453125 L 1.5625 -3.890625 C 1.726562 -4.128906 1.910156 -4.296875 2.109375 -4.390625 C 2.316406 -4.492188 2.535156 -4.546875 2.765625 -4.546875 C 3.054688 -4.546875 3.304688 -4.484375 3.515625 -4.359375 C 3.722656 -4.242188 3.863281 -4.066406 3.9375 -3.828125 C 4.082031 -4.078125 4.265625 -4.257812 4.484375 -4.375 C 4.703125 -4.488281 4.957031 -4.546875 5.25 -4.546875 C 5.75 -4.546875 6.113281 -4.398438 6.34375 -4.109375 C 6.582031 -3.816406 6.703125 -3.421875 6.703125 -2.921875 L 6.703125 0 L 5.640625 0 L 5.640625 -2.78125 C 5.640625 -3.09375 5.578125 -3.316406 5.453125 -3.453125 C 5.335938 -3.597656 5.164062 -3.671875 4.9375 -3.671875 C 4.820312 -3.671875 4.71875 -3.648438 4.625 -3.609375 C 4.539062 -3.566406 4.46875 -3.515625 4.40625 -3.453125 C 4.300781 -3.335938 4.226562 -3.191406 4.1875 -3.015625 C 4.15625 -2.835938 4.140625 -2.617188 4.140625 -2.359375 L 4.140625 0 L 3.0625 0 L 3.0625 -2.78125 C 3.0625 -3.082031 3 -3.304688 2.875 -3.453125 C 2.75 -3.597656 2.578125 -3.671875 2.359375 -3.671875 C 2.140625 -3.671875 1.957031 -3.59375 1.8125 -3.4375 C 1.726562 -3.332031 1.664062 -3.195312 1.625 -3.03125 C 1.582031 -2.863281 1.5625 -2.640625 1.5625 -2.359375 Z M 1.5625 0 "/></g></g></g><g clip-path="url(#f374ac73c7)"><path fill="#ff66b2" d="M 66.4375 230.125 L 228.699219 230.125 L 228.699219 235.652344 L 66.4375 235.652344 Z M 66.4375 230.125 " fill-opacity="1" fill-rule="nonzero"/></g></svg>