<?xml version="1.0" standalone="no"?>
<!DOCTYPE svg PUBLIC "-//W3C//DTD SVG 20010904//EN"
 "http://www.w3.org/TR/2001/REC-SVG-20010904/DTD/svg10.dtd">
<svg version="1.0" xmlns="http://www.w3.org/2000/svg"
 width="2052.000000pt" height="2047.000000pt" viewBox="0 0 2052.000000 2047.000000"
 preserveAspectRatio="xMidYMid meet">
<metadata>
Created by potrace 1.16, written by Peter Selinger 2001-2019
</metadata>
<g transform="translate(0.000000,2047.000000) scale(0.100000,-0.100000)"
fill="#000000" stroke="none">
<path d="M0 16168 c1 -4655 -3 -4338 50 -4198 12 30 32 78 45 105 13 28 44
100 70 160 25 61 52 123 60 138 8 16 15 33 15 38 0 6 14 40 31 77 17 37 36 78
41 92 6 14 19 41 29 61 11 20 19 42 19 48 0 7 9 31 21 54 11 23 30 67 41 97
11 30 25 60 30 67 5 6 18 33 28 60 27 70 78 192 99 238 11 22 30 67 44 100 14
33 48 110 75 170 27 61 52 120 56 133 l7 22 670 -2 670 -3 31 -70 c16 -38 38
-88 48 -110 10 -22 24 -56 31 -75 8 -19 26 -59 42 -88 15 -30 27 -60 27 -67 0
-7 9 -30 20 -52 11 -21 38 -81 60 -133 23 -52 50 -115 62 -140 36 -81 46 -104
68 -160 12 -30 26 -59 31 -64 5 -6 9 189 9 477 l0 487 827 -2 827 -3 29 -75
c15 -41 38 -106 52 -145 13 -38 38 -108 55 -155 18 -47 36 -98 40 -115 16 -60
68 -189 77 -192 5 -2 16 18 25 44 9 27 37 106 62 177 26 72 44 136 42 143 -3
7 -1 13 3 13 5 0 16 19 24 43 9 23 25 68 36 99 12 32 23 66 25 75 2 10 11 35
20 56 l16 37 3705 0 3705 0 0 -170 c0 -93 2 -170 5 -170 11 0 50 26 66 43 9 9
21 17 28 17 6 0 11 5 11 10 0 6 5 10 11 10 6 0 23 8 37 19 44 30 222 121 238
121 8 0 32 9 53 19 21 11 83 31 138 46 219 56 172 55 1558 55 l1280 0 17 -32
c9 -18 35 -78 58 -133 23 -55 55 -128 71 -161 16 -34 29 -67 29 -73 0 -6 14
-41 32 -78 17 -38 35 -77 39 -88 5 -11 31 -69 59 -129 27 -60 50 -114 50 -120
0 -6 16 -43 35 -81 l35 -70 -1 60 c0 33 0 250 0 483 l1 422 699 0 c614 0 700
-2 705 -15 8 -22 337 -514 347 -521 5 -3 9 114 9 265 l0 271 700 0 700 0 -2
-1607 -3 -1608 -699 0 -699 0 -43 70 c-24 39 -47 77 -51 85 -15 27 -134 212
-143 220 -3 3 -25 37 -48 76 -78 130 -72 143 -71 -171 l0 -280 -1014 -3 -1013
-2 -21 47 c-30 70 -80 194 -124 306 -21 54 -44 111 -51 128 l-13 29 -272 0
c-271 -1 -272 -1 -279 -23 -3 -12 -47 -124 -96 -250 -75 -189 -94 -228 -113
-233 -12 -3 -355 -4 -761 -1 -637 4 -751 7 -824 21 -181 35 -350 104 -501 203
-37 24 -69 43 -72 43 -2 0 -24 19 -48 43 l-44 42 -5 -175 -5 -175 -1015 -3
c-558 -1 -1029 0 -1046 3 -22 4 -38 17 -58 49 -15 23 -47 65 -72 92 -25 27
-64 74 -87 104 -51 67 -108 136 -164 202 l-43 49 0 -251 0 -250 -3856 2 -3856
3 -30 70 c-17 39 -34 79 -39 90 -5 11 -18 45 -29 75 -11 30 -25 64 -29 75 -5
11 -25 58 -44 105 l-34 85 -269 0 -269 0 -3 -23 c-2 -12 -7 -20 -10 -18 -4 2
-22 -35 -41 -82 -31 -83 -91 -233 -134 -334 l-19 -48 -474 0 -474 0 0 -5205 0
-5205 10235 0 10235 0 0 3210 0 3210 -25 -12 c-14 -6 -25 -15 -25 -20 0 -4 -4
-8 -10 -8 -5 0 -51 -20 -102 -43 -94 -44 -210 -84 -335 -115 -63 -15 -322 -17
-3546 -19 -1913 -2 -3485 1 -3493 5 -9 5 -32 29 -52 55 -20 25 -109 135 -197
244 l-160 198 -3 -245 c-2 -180 -6 -246 -15 -252 -6 -4 -310 -8 -674 -8 l-663
0 -1 438 c0 240 -3 432 -5 425 -5 -11 -92 -42 -214 -77 -99 -28 -219 -36 -522
-36 l-298 0 0 -375 0 -375 -1004 0 c-575 0 -1015 4 -1028 9 -23 8 -98 102
-210 260 -54 76 -78 107 -110 143 -13 14 -28 34 -34 44 -6 11 -16 19 -21 19
-10 0 -51 -51 -105 -130 -15 -22 -39 -53 -54 -70 -14 -16 -33 -41 -42 -55 -34
-52 -156 -201 -173 -211 -11 -5 -658 -9 -1698 -9 l-1681 0 0 1610 0 1610 1711
0 c1702 0 1711 0 1716 -20 3 -11 9 -20 14 -20 5 0 15 -13 24 -29 8 -17 25 -41
37 -54 13 -14 48 -57 78 -97 30 -39 83 -108 117 -152 34 -44 64 -85 67 -91 5
-9 7 -9 12 0 3 6 15 22 27 36 12 14 36 42 52 62 17 21 36 44 43 51 6 7 12 17
12 22 0 4 12 19 26 33 15 13 37 41 51 62 13 21 31 46 41 56 17 17 51 60 92
114 l21 27 6180 0 6179 0 0 5525 0 5525 -10235 0 -10235 0 0 -4302z"/>
<path d="M1030 13205 c-6 -15 -21 -51 -35 -81 -14 -30 -25 -57 -25 -59 0 -3
-16 -38 -35 -79 -19 -41 -35 -79 -35 -83 0 -7 -39 -98 -115 -268 -13 -28 -39
-91 -60 -140 -20 -50 -47 -112 -60 -140 -44 -97 -63 -141 -100 -235 -21 -52
-41 -99 -45 -105 -4 -5 -38 -82 -74 -170 -37 -88 -76 -177 -87 -198 -11 -21
-16 -44 -13 -50 4 -7 3 -9 -1 -4 -5 4 -23 -28 -40 -70 -62 -151 -103 -249
-128 -303 -28 -62 -143 -327 -157 -365 l-9 -24 334 -1 c303 0 335 1 335 16 0
9 11 39 25 66 14 28 27 59 28 69 2 9 10 32 19 51 9 18 29 65 43 103 15 39 31
79 35 90 4 11 13 35 20 53 l12 32 559 0 559 0 30 -65 c17 -36 30 -69 30 -72 0
-18 64 -173 71 -173 5 0 9 -8 9 -17 0 -10 12 -48 26 -85 l26 -68 339 0 c186 0
339 2 339 5 0 2 -11 28 -24 57 -13 29 -61 141 -106 248 -46 107 -96 223 -111
258 -16 35 -29 65 -29 67 0 4 -105 244 -136 312 -8 18 -21 50 -28 70 -7 21
-28 68 -45 104 -17 36 -31 69 -31 73 0 4 -15 39 -33 79 -19 40 -42 94 -52 120
-10 26 -22 50 -26 53 -5 3 -9 12 -9 20 0 8 -11 39 -24 67 -27 56 -75 167 -136
312 -63 151 -100 238 -125 290 -37 79 -105 244 -105 254 0 7 -148 10 -395 11
l-395 0 -10 -25z m439 -639 c21 -53 41 -93 44 -89 4 3 7 -2 7 -13 0 -23 24
-91 55 -158 12 -28 37 -90 55 -138 18 -49 37 -88 41 -88 5 0 9 -8 9 -17 0 -26
61 -183 71 -183 5 0 9 -11 9 -25 l0 -25 -340 0 c-187 0 -340 2 -340 4 0 6 57
150 76 194 36 83 43 99 54 134 6 20 24 64 41 98 16 33 29 65 29 71 0 12 41
114 66 162 8 16 14 33 14 38 0 17 60 142 66 137 3 -4 22 -49 43 -102z"/>
<path d="M2930 12030 l0 -1200 300 0 300 0 2 882 3 882 33 -85 c17 -48 32 -93
32 -101 0 -7 4 -18 9 -23 5 -6 18 -37 30 -70 11 -33 27 -78 35 -100 66 -177
79 -212 83 -230 2 -11 9 -29 14 -40 5 -11 24 -63 43 -115 19 -52 48 -133 66
-180 18 -47 36 -98 40 -115 9 -35 38 -118 56 -160 14 -33 38 -98 58 -160 8
-22 28 -78 46 -125 18 -47 34 -94 37 -105 3 -11 14 -39 24 -62 10 -24 19 -49
19 -56 0 -34 21 -37 282 -37 199 0 258 3 260 13 2 23 5 32 17 62 7 17 14 37
16 46 2 9 8 25 14 35 14 25 82 222 88 257 3 15 9 27 13 27 4 0 13 21 20 48 7
26 20 61 28 77 8 17 19 44 23 60 4 17 26 82 49 145 22 63 50 142 62 175 11 33
25 65 30 72 5 7 7 17 4 22 -4 5 -2 12 3 15 5 3 12 18 16 33 3 16 13 42 20 58
7 17 27 71 44 120 17 50 51 144 76 210 25 66 57 154 71 195 14 41 30 79 35 85
5 5 9 -327 9 -873 l0 -882 295 0 295 0 0 1200 0 1200 -468 0 -469 0 -16 -37
c-9 -21 -30 -78 -47 -128 -17 -49 -51 -148 -76 -220 -25 -71 -52 -148 -59
-170 -8 -22 -30 -85 -50 -140 -20 -55 -40 -113 -45 -130 -4 -16 -15 -47 -25
-69 -9 -21 -14 -45 -11 -53 3 -8 1 -11 -4 -8 -5 3 -12 -7 -15 -22 -4 -15 -11
-37 -15 -48 -5 -11 -32 -87 -60 -170 -105 -307 -117 -339 -128 -343 -7 -2 -12
1 -12 8 0 8 -143 412 -177 500 -3 8 -25 69 -49 135 -47 133 -126 352 -186 520
-22 61 -61 170 -87 242 l-46 133 -477 0 -478 0 0 -1200z"/>
<path d="M6350 12030 l0 -1200 980 0 980 0 0 260 0 260 -680 0 -680 0 0 218 0
217 665 -3 665 -2 0 250 0 250 -665 -2 -665 -3 0 215 0 215 680 -3 680 -2 0
265 0 265 -980 0 -980 0 0 -1200z"/>
<path d="M8660 12030 l0 -1200 300 0 300 0 2 428 3 427 123 3 c141 3 123 13
232 -123 94 -117 154 -187 213 -248 26 -28 47 -52 47 -54 0 -3 27 -37 60 -76
33 -40 80 -97 105 -127 25 -30 69 -81 98 -114 28 -32 61 -72 72 -87 l20 -29
363 0 363 0 -82 93 c-45 50 -96 108 -113 127 -17 19 -71 80 -121 136 -49 55
-117 132 -150 170 -33 37 -117 131 -187 207 -71 76 -128 142 -128 148 0 5 10
9 22 9 126 0 395 152 479 272 13 18 27 35 31 36 4 2 8 12 8 22 0 10 4 20 8 22
14 5 68 128 87 198 23 87 24 270 2 365 -22 92 -63 191 -97 235 -15 19 -32 44
-38 56 -17 31 -112 120 -165 154 -78 49 -187 101 -243 116 -29 7 -65 17 -81
21 -15 4 -367 9 -780 10 l-753 4 0 -1201z m1370 659 c27 -6 50 -15 50 -20 0
-5 6 -9 14 -9 7 0 36 -21 63 -47 68 -65 91 -132 73 -212 -17 -76 -31 -100 -85
-145 -78 -64 -93 -66 -512 -66 l-373 0 0 255 0 255 360 0 c220 0 379 -4 410
-11z"/>
<path d="M11090 12030 l0 -1200 305 0 305 0 0 1200 0 1200 -305 0 -305 0 0
-1200z"/>
<path d="M12907 13209 c-59 -10 -116 -23 -127 -29 -10 -5 -26 -10 -34 -10 -8
0 -40 -11 -70 -25 -30 -14 -62 -25 -70 -25 -9 0 -16 -4 -16 -9 0 -5 -10 -11
-22 -15 -67 -16 -235 -152 -323 -261 -122 -150 -196 -334 -236 -585 -20 -127
-15 -360 10 -504 12 -66 24 -123 27 -128 3 -4 7 -18 9 -29 6 -33 27 -93 35
-104 4 -5 13 -28 20 -50 7 -22 21 -52 31 -67 11 -14 19 -33 19 -42 0 -9 3 -16
8 -16 4 0 16 -17 27 -37 26 -47 63 -91 151 -179 66 -66 182 -147 211 -147 7 0
10 -3 8 -7 -2 -4 19 -16 48 -28 140 -56 284 -82 452 -81 l90 0 41 87 c52 112
149 313 180 375 13 27 24 51 24 53 0 2 -42 4 -93 4 -101 0 -241 15 -297 31
-19 6 -73 29 -119 52 -67 34 -94 54 -139 107 -30 35 -61 79 -69 97 -7 18 -18
33 -24 33 -5 0 -8 4 -5 8 3 5 -3 31 -14 58 -64 169 -46 489 35 631 15 26 34
60 41 74 20 38 101 116 149 145 24 13 71 37 106 51 l64 27 408 4 407 4 0 279
0 279 -417 -1 c-364 -1 -432 -3 -526 -20z"/>
<path d="M14428 13142 c-20 -48 -57 -136 -83 -197 -25 -60 -50 -117 -54 -126
-5 -8 -75 -170 -156 -360 -81 -189 -155 -362 -165 -384 -34 -75 -87 -200 -100
-235 -8 -19 -35 -82 -62 -139 -26 -57 -48 -106 -48 -110 0 -4 -11 -31 -25 -59
-14 -29 -25 -56 -25 -60 0 -5 -16 -41 -35 -81 -19 -39 -35 -76 -35 -81 0 -5
-13 -38 -30 -74 -16 -36 -43 -96 -60 -132 -16 -36 -30 -70 -30 -76 0 -5 -6
-22 -14 -36 -25 -47 -66 -140 -66 -151 0 -8 103 -11 328 -11 l329 0 11 25 c7
14 12 32 12 40 0 7 4 15 8 17 4 2 25 50 47 108 21 58 41 110 45 115 7 9 33 83
35 95 0 3 8 22 18 43 l18 37 558 0 559 0 12 -32 c7 -18 24 -57 37 -86 12 -29
23 -56 23 -61 0 -4 17 -48 38 -97 21 -49 47 -115 57 -146 l19 -58 343 0 342 0
-25 58 c-14 31 -29 66 -34 77 -32 71 -60 136 -60 141 0 3 -13 31 -29 64 -16
32 -32 69 -36 82 -7 21 -69 165 -101 233 -7 17 -37 86 -65 155 -89 217 -109
264 -118 274 -4 6 -16 34 -26 61 -10 28 -22 55 -26 60 -3 6 -25 55 -47 110
-22 55 -51 125 -65 155 -13 30 -46 105 -71 165 -26 61 -53 124 -61 140 -22 46
-113 260 -151 353 -19 46 -45 107 -58 135 -12 29 -31 71 -41 95 l-18 42 -391
0 -391 0 -37 -88z m471 -579 c23 -60 56 -142 71 -183 65 -169 144 -362 161
-394 6 -10 12 -27 14 -38 3 -12 14 -38 25 -60 11 -21 20 -43 20 -48 0 -6 -129
-10 -345 -10 l-344 0 29 66 c17 36 30 71 30 76 0 11 42 115 66 161 8 16 14 35
14 43 0 8 9 32 19 52 28 52 61 130 61 142 0 6 9 29 20 53 10 23 35 83 55 132
20 50 39 96 42 103 10 25 20 10 62 -95z"/>
<path d="M16360 12030 l0 -1200 295 0 295 0 0 770 c0 424 3 770 8 770 4 0 20
-21 37 -48 16 -26 32 -49 35 -52 6 -6 41 -59 88 -135 17 -27 35 -55 39 -61 15
-19 33 -49 53 -86 11 -21 25 -38 30 -38 6 0 10 -5 10 -11 0 -11 11 -29 142
-229 92 -142 91 -139 111 -165 9 -13 17 -26 17 -28 0 -15 64 -106 71 -101 5 3
6 -2 3 -10 -3 -9 -2 -16 4 -16 5 0 12 -8 16 -17 6 -18 70 -122 117 -190 14
-21 56 -85 94 -143 37 -58 81 -124 96 -148 16 -23 29 -47 29 -52 0 -6 137 -10
370 -10 l370 0 0 1200 0 1200 -295 0 -295 0 0 -750 c0 -412 -3 -750 -8 -750
-8 0 -127 177 -201 300 -24 41 -48 77 -51 80 -4 3 -13 16 -20 30 -7 14 -73
115 -145 225 -73 110 -140 214 -149 230 -22 41 -39 67 -52 82 -7 7 -28 41 -48
75 -20 35 -45 74 -55 88 -10 14 -36 52 -57 85 -21 33 -42 65 -47 70 -15 20
-107 165 -107 170 0 3 -10 19 -22 35 l-22 30 -378 0 -378 0 0 -1200z"/>
<path d="M19795 9020 c-576 -5 -692 -8 -760 -22 -123 -26 -182 -46 -278 -95
-84 -43 -215 -146 -216 -169 -1 -6 -10 -18 -20 -25 -30 -22 -96 -157 -117
-239 -14 -57 -19 -109 -18 -215 0 -143 12 -213 50 -300 10 -22 18 -42 19 -45
3 -14 38 -73 53 -89 67 -73 136 -141 143 -141 4 0 14 -7 22 -15 18 -17 103
-56 172 -79 91 -29 187 -36 520 -36 355 0 402 -5 470 -51 60 -41 93 -144 70
-219 -12 -42 -54 -89 -98 -113 l-42 -22 -652 -3 -653 -3 0 -260 0 -260 723 3
c718 4 722 4 797 27 41 12 81 28 89 34 8 7 16 10 18 8 5 -4 66 20 73 30 3 3
21 14 40 24 18 10 40 23 47 29 7 6 19 17 28 24 8 7 12 18 9 24 -4 7 -2 8 4 4
6 -4 24 8 39 25 15 18 36 40 45 50 35 37 119 218 134 291 21 97 14 347 -11
431 -10 31 -20 55 -22 53 -3 -2 -20 26 -40 62 -31 61 -155 202 -176 202 -4 0
-16 8 -27 18 -15 14 -144 68 -184 77 -6 1 -19 5 -29 10 -9 4 -26 5 -37 2 -11
-3 -18 -2 -15 3 9 15 -105 20 -451 20 -384 0 -426 5 -479 58 -34 34 -65 106
-65 151 0 90 35 142 125 183 50 23 50 23 597 26 l547 3 22 47 c11 26 39 83 60
127 22 45 39 88 39 98 0 9 3 17 8 17 4 0 14 15 21 33 44 98 74 157 81 157 4 0
13 14 19 30 7 23 7 29 -2 28 -7 -1 -318 -5 -692 -8z"/>
<path d="M4397 9013 c-4 -3 -7 -543 -7 -1200 l0 -1193 981 0 981 0 -3 260 -3
260 -678 0 -678 0 0 215 0 215 660 0 660 0 0 250 0 250 -660 0 -660 0 0 210 0
210 680 0 680 0 -2 263 -3 262 -971 3 c-534 1 -974 -1 -977 -5z"/>
<path d="M6420 9014 c0 -4 12 -21 28 -40 15 -18 59 -74 97 -123 39 -50 75 -91
80 -91 6 -1 32 -34 59 -75 27 -41 52 -75 56 -75 4 0 12 -11 18 -25 6 -14 18
-25 27 -25 8 0 15 -7 15 -15 0 -8 8 -22 18 -32 10 -10 29 -33 42 -52 13 -18
40 -52 61 -75 22 -22 39 -44 39 -48 0 -4 6 -13 14 -21 8 -8 46 -54 85 -103 39
-49 77 -96 84 -104 8 -8 25 -30 38 -49 13 -19 41 -53 61 -75 21 -23 38 -44 38
-47 0 -3 18 -25 40 -50 72 -80 72 -77 -6 -171 -37 -46 -70 -85 -73 -88 -4 -3
-25 -30 -47 -60 -23 -30 -50 -65 -60 -76 -11 -12 -46 -56 -79 -99 -33 -42 -76
-95 -96 -118 -117 -137 -408 -510 -404 -518 3 -5 -1 -6 -10 -3 -9 4 -15 2 -13
-3 2 -5 -18 -34 -44 -64 -27 -31 -48 -59 -48 -63 0 -3 163 -6 363 -6 l362 0
81 108 c159 210 230 306 367 491 49 66 94 125 102 131 11 9 34 -17 117 -125
57 -75 112 -149 123 -165 34 -47 113 -148 148 -189 11 -13 52 -69 95 -131 9
-13 32 -40 49 -60 18 -19 33 -41 33 -47 0 -10 83 -13 381 -13 l381 0 -19 24
c-18 23 -92 116 -117 147 -169 208 -266 330 -266 335 0 3 -36 48 -80 100 -44
51 -80 96 -80 99 0 4 -6 12 -12 19 -7 7 -29 32 -48 56 -19 25 -50 61 -67 81
-18 20 -33 39 -33 43 0 4 -36 49 -80 101 -44 52 -80 98 -80 102 0 4 -13 22
-29 38 -25 27 -66 91 -46 73 8 -7 82 74 120 132 12 19 41 55 64 80 23 25 49
57 59 73 9 15 20 27 24 27 4 0 8 5 8 12 0 7 15 28 34 48 19 19 120 143 225
275 174 218 221 277 274 339 34 41 147 188 147 191 0 2 -161 4 -357 5 l-358 0
-30 -44 c-26 -39 -191 -249 -220 -280 -6 -6 -19 -24 -29 -41 -11 -16 -43 -58
-70 -91 -28 -34 -91 -114 -140 -178 -49 -64 -92 -116 -95 -115 -6 0 -97 116
-172 219 -23 30 -50 65 -61 77 -12 12 -26 31 -32 42 -6 11 -67 90 -136 176
-69 86 -130 165 -136 176 -6 10 -19 28 -29 39 -17 19 -30 20 -387 20 -202 0
-368 -3 -368 -6z"/>
<path d="M9120 7820 l0 -1200 305 0 305 0 0 380 0 380 358 0 c365 0 468 7 602
40 125 30 275 107 363 186 75 67 164 182 172 224 1 3 8 21 17 40 57 131 78
290 59 450 -17 138 -56 247 -133 365 -36 58 -167 177 -224 206 -27 13 -51 26
-54 29 -7 7 -69 36 -105 49 -125 45 -122 44 -912 48 l-753 4 0 -1201z m1400
644 c188 -61 243 -314 101 -461 -17 -17 -56 -42 -88 -55 -56 -22 -68 -23 -430
-26 l-373 -3 0 280 0 281 371 0 c311 0 378 -3 419 -16z"/>
<path d="M11580 7820 l0 -1200 295 0 295 0 0 431 0 431 129 -4 129 -3 41 -46
c22 -25 61 -72 87 -104 26 -32 65 -76 86 -99 21 -22 38 -44 38 -47 0 -6 17
-26 84 -99 17 -19 63 -73 101 -120 39 -47 75 -89 81 -95 5 -5 30 -35 54 -65
24 -30 62 -76 85 -102 22 -25 46 -53 53 -62 11 -14 56 -16 380 -16 l366 0 -60
63 c-33 34 -98 105 -144 157 -99 112 -198 222 -337 374 -56 61 -115 128 -132
149 -17 22 -51 62 -77 90 l-47 52 44 6 c124 18 290 101 386 193 40 37 70 72
67 77 -3 5 -1 9 4 9 19 0 93 133 124 223 30 85 32 101 32 222 0 166 -22 261
-92 399 -29 56 -178 212 -235 246 -74 43 -160 81 -174 76 -8 -3 -12 -2 -9 3 6
9 -39 24 -142 46 -62 13 -184 15 -793 15 l-719 0 0 -1200z m1391 648 c83 -33
169 -126 169 -183 0 -9 4 -14 8 -11 5 3 5 -24 1 -59 -13 -104 -74 -181 -172
-215 -53 -19 -83 -20 -432 -20 l-375 0 0 255 0 255 374 0 c360 0 375 -1 427
-22z"/>
<path d="M14010 7820 l0 -1200 978 0 977 0 -3 260 -3 260 -674 0 -675 0 0 215
0 215 660 0 660 0 0 250 0 250 -659 0 c-426 0 -661 4 -663 10 -1 5 -2 100 0
210 l3 200 674 0 675 0 0 265 0 265 -975 0 -975 0 0 -1200z"/>
<path d="M16885 9005 c-156 -23 -263 -56 -358 -112 -21 -13 -41 -23 -45 -23
-5 0 -48 -39 -98 -87 -102 -100 -149 -178 -185 -308 -40 -143 -28 -397 22
-497 11 -21 19 -42 19 -47 0 -5 19 -40 43 -78 42 -68 113 -142 177 -185 56
-38 179 -89 219 -91 20 -1 39 -6 43 -12 5 -6 159 -12 410 -15 398 -5 404 -5
456 -29 166 -75 157 -296 -14 -361 -53 -19 -74 -20 -689 -20 l-635 0 0 -254
c0 -222 2 -255 16 -260 24 -9 1331 -6 1404 3 83 11 196 45 240 74 19 12 48 26
64 32 46 16 169 135 208 200 98 163 123 256 122 450 0 142 -7 185 -47 285 -24
62 -51 107 -99 164 -31 36 -47 52 -98 99 -33 28 -150 84 -230 108 -71 21 -97
22 -500 28 -398 6 -427 7 -455 25 -76 49 -101 90 -110 180 -11 105 65 188 190
206 39 5 293 10 575 10 l505 0 19 48 c10 26 49 110 87 187 82 171 129 275 129
286 0 15 -1280 9 -1385 -6z"/>
</g>
</svg>
