<svg version="1.1" xmlns="http://www.w3.org/2000/svg" xmlns:xlink="http://www.w3.org/1999/xlink" x="0px" y="0px" width="165.52px" height="105.97px" viewBox="0 0 165.52 105.97" enable-background="new 0 0 165.52 105.97" xml:space="preserve">
<g>
  <path fill="#FFFFFF" d="M150.7,0H14.82c-0.75,0-1.48,0.01-2.23,0.03c-0.64,0.03-1.27,0.08-1.9,0.16c-1.3,0.13-2.57,0.45-3.79,0.93 c-1.23,0.5-2.35,1.18-3.36,2.01C2.52,3.9,1.5,4.93,0.73,6.11c-0.78,1.19-1.37,2.5-1.73,3.89c-0.34,1.28-0.51,2.61-0.51,3.94 c-0.1,0.69-0.14,1.38-0.14,2.06v74.02c0,0.7,0.04,1.4,0.14,2.08c0,1.33,0.17,2.66,0.51,3.94c0.36,1.39,0.95,2.7,1.73,3.89 c0.77,1.18,1.79,2.21,2.82,2.98c1.01,0.83,2.13,1.51,3.36,2.01c1.22,0.48,2.49,0.8,3.79,0.93c0.63,0.08,1.26,0.13,1.9,0.16 c0.75,0.02,1.48,0.03,2.23,0.03H150.7c0.74,0,1.5-0.01,2.23-0.03c0.64-0.03,1.27-0.08,1.91-0.16c1.3-0.13,2.56-0.45,3.78-0.93 c1.23-0.5,2.35-1.18,3.38-2.01c1.02-0.78,2.03-1.8,2.81-2.98c0.77-1.19,1.36-2.5,1.72-3.89c0.34-1.28,0.51-2.61,0.52-3.94 c0.09-0.69,0.09-1.38,0.09-2.08V16c0-0.69,0-1.37-0.09-2.06c-0.01-1.33-0.18-2.66-0.52-3.94c-0.36-1.39-0.95-2.7-1.72-3.89 c-0.78-1.18-1.79-2.21-2.81-2.98c-1.03-0.83-2.15-1.51-3.38-2.01c-1.22-0.48-2.48-0.8-3.78-0.93c-0.64-0.08-1.27-0.13-1.91-0.16 C152.2,0.01,151.44,0,150.7,0"></path>
  <path d="M150.7,3.19c0.73,0,1.47,0.01,2.2,0.03c0.58,0.02,1.16,0.08,1.74,0.14c1.01,0.1,2.01,0.35,2.95,0.73 c0.93,0.38,1.78,0.89,2.56,1.53c0.78,0.59,1.46,1.33,2.04,2.16c0.57,0.87,1,1.82,1.26,2.83c0.27,1.04,0.41,2.12,0.41,3.19 c0.09,0.58,0.12,1.21,0.12,1.83v73.98c0,0.61-0.03,1.23-0.12,1.85c-0.01,1.07-0.14,2.14-0.41,3.17c-0.26,1.01-0.69,1.96-1.26,2.84 c-0.58,0.83-1.26,1.57-2.04,2.16c-0.78,0.64-1.63,1.15-2.56,1.53c-0.94,0.38-1.94,0.63-2.95,0.73c-0.58,0.07-1.16,0.12-1.76,0.14 c-0.73,0.02-1.45,0.03-2.18,0.03H14.82c-0.73,0-1.45-0.01-2.18-0.03c-0.6-0.02-1.18-0.07-1.76-0.14c-1.01-0.1-2.01-0.35-2.95-0.73 c-0.93-0.38-1.77-0.89-2.55-1.53c-0.78-0.59-1.47-1.33-2.04-2.16c-0.57-0.88-1-1.83-1.26-2.84c-0.27-1.04-0.41-2.1-0.41-3.17 c-0.08-0.62-0.12-1.24-0.12-1.85V16c0-0.62,0.04-1.25,0.12-1.87c0-1.07,0.14-2.13,0.41-3.17c0.26-1.01,0.69-1.96,1.26-2.83 c0.57-0.83,1.26-1.57,2.04-2.16c0.78-0.64,1.62-1.15,2.55-1.53c0.94-0.38,1.94-0.63,2.95-0.73c0.58-0.06,1.16-0.12,1.76-0.14 c0.73-0.02,1.45-0.03,2.18-0.03H150.7"></path>
  <g>
    <path fill="#FFFFFF" d="M43.51,35.77c1.74-2.1,2.9-4.78,2.58-7.57c-2.5,0.1-5.64,1.65-7.46,3.75c-1.6,1.85-3.05,4.63-2.67,7.33 C38.68,39.46,41.63,37.93,43.51,35.77z"></path>
    <path fill="#FFFFFF" d="M46.03,39.36c-3.18-0.19-5.9,1.81-7.42,1.81c-1.53,0-3.85-1.73-6.36-1.69c-3.27,0.06-6.35,1.91-8.03,4.91 c-3.42,5.93-0.88,14.75,2.4,19.56c1.6,2.32,3.52,4.91,6.04,4.82c2.39-0.1,3.32-1.54,6.23-1.54c2.9,0,3.75,1.54,6.26,1.5 c2.61-0.05,4.26-2.33,5.86-4.66c1.81-2.63,2.56-5.21,2.6-5.34c-0.06-0.04-4.96-1.92-5.02-7.57c-0.05-4.7,3.85-6.92,4.02-7.06 C50.16,40.06,46.2,39.44,46.03,39.36z"></path>
  </g>
  <g>
    <path fill="#FFFFFF" d="M76.56,32.11h-9.16v25.64h3.81v-8.73h5.35c4.97,0,8.46-3.4,8.46-8.47 C85.02,35.49,81.53,32.11,76.56,32.11z M76.56,45.62h-5.35v-10.1h5.35c3.16,0,4.96,2.58,4.96,5.03 C81.52,43.02,79.72,45.62,76.56,45.62z"></path>
    <path fill="#FFFFFF" d="M98.86,44.01c-2.82-1.1-2.97-1.95-2.97-2.99c0-1.44,1.41-2.33,3.27-2.33c1.86,0,2.94,0.75,4.03,1.72 l0.08,0.07l1.65-2.61l-0.09-0.08c-1.21-1.05-3.4-2.06-5.67-2.06c-4.32,0-7.05,2.64-7.05,5.46c0,2.61,2.37,3.97,4.42,4.85 c0.33,0.14,0.65,0.27,0.94,0.38c2.54,0.97,3.44,1.89,3.44,3.07c0,1.44-1.42,2.45-3.66,2.45c-2.25,0-3.87-0.89-5.1-2.03l-0.09-0.08 l-1.71,2.55l0.08,0.07c1.63,1.56,4.22,2.47,6.71,2.47c5.04,0,7.44-2.76,7.44-5.64C104.49,46.89,102.72,45.55,98.86,44.01z"></path>
    <path fill="#FFFFFF" d="M113.19,37.72c-5.17,0-8.33,3.98-8.33,10.16c0,6.14,3.2,10.13,8.26,10.13c5.13,0,8.3-3.94,8.3-10.16 C121.42,41.71,118.22,37.72,113.19,37.72z M113.19,54.59c-3.61,0-4.47-3.31-4.47-6.74c0-3.47,0.84-6.7,4.47-6.7 c3.57,0,4.44,3.23,4.44,6.7C117.63,51.28,116.8,54.59,113.19,54.59z"></path>
    <path fill="#FFFFFF" d="M137.94,40.77c-2.01-2.01-4.2-3.04-6.52-3.04c-5.1,0-8.17,4.03-8.17,10.16c0,6.02,3.15,10.13,8.14,10.13 c2.32,0,4.46-0.97,6.48-2.94l0.09-0.08l-0.03-1.97l-0.13,0.11c-1.77,1.41-3.52,2.05-5.24,2.05c-3.97,0-5.2-3.23-5.2-7.15h11.29 l0.04-0.14c0.09-0.33,0.11-0.78,0.11-1.33C138.78,43.82,138.56,41.38,137.94,40.77z M127.4,44.87c0.22-3.13,1.76-4.3,4.02-4.3 c2.43,0,3.93,1.47,3.93,4.3H127.4z"></path>
    <path fill="#FFFFFF" d="M76.92,62.87c-3.52,0-5.69,2.14-5.69,5.62v8.28h-2.14V62.87h-5.25v3.57h1.65v1.66 c0,1.26-0.16,2.6-0.16,2.6h0.06c0,0,1.19-2.65,4.86-2.65h1.19v-1.42C71.46,64.31,73.72,62.87,76.92,62.87z"></path>
    <polygon fill="#FFFFFF" points="79.36,68.88 76.99,68.88 76.99,72.01 79.36,72.01 79.36,76.77 82.93,76.77 82.93,72.01 85.31,72.01 85.31,68.88 82.93,68.88 82.93,64.13 79.36,64.13"></polygon>
  </g>
</g>
</svg> 