<svg width="41" height="17" viewBox="0 0 41 17" fill="none" xmlns="http://www.w3.org/2000/svg">
  <path d="M19.4549 8.5C19.4549 8.05 19.4241 7.62 19.3625 7.2H10.7373V9.83H15.6569C15.5029 10.74 14.9337 11.48 14.0569 11.97V13.89H16.8773C18.4573 12.43 19.4549 10.65 19.4549 8.5Z" fill="#4285F4"/>
  <path d="M10.7373 16C13.1077 16 15.1029 15.3 16.8773 13.89L14.0569 11.97C13.2993 12.49 12.1373 12.83 10.7373 12.83C8.29329 12.83 6.19329 11.19 5.49409 9H2.60889V10.98C4.37689 13.98 7.37329 16 10.7373 16Z" fill="#34A853"/>
  <path d="M5.4941 9C5.3632 8.51 5.2861 7.98 5.2861 7.43C5.2861 6.89 5.3632 6.35 5.4941 5.87V3.89H2.6089C2.0397 4.96 1.7129 6.17 1.7129 7.43C1.7129 8.7 2.0397 9.91 2.6089 10.98L5.4941 9Z" fill="#FBBC05"/>
  <path d="M10.7373 2.05C12.1528 2.05 13.4144 2.53 14.4197 3.48L16.9363 0.96C15.1028 -0.74 13.1076 -1.74 10.7373 -1.74C7.37329 -1.74 4.37689 0.28 2.60889 3.28L5.49409 5.26C6.19329 3.07 8.29329 2.05 10.7373 2.05Z" fill="#EA4335"/>
  <path d="M28.0908 6.89C28.0908 6.15 27.4908 5.76 26.6672 5.76C25.8282 5.76 25.1972 6.17 25.1972 6.89C25.1972 7.59 25.8282 8 26.6672 8C27.4908 8 28.0908 7.63 28.0908 6.89ZM25.0432 6.89C25.0432 6.04 25.7813 5.45 26.6672 5.45C27.5532 5.45 28.2452 6.04 28.2452 6.89C28.2452 7.74 27.5532 8.33 26.6672 8.33C25.7813 8.33 25.0432 7.74 25.0432 6.89Z" fill="black"/>
  <path d="M26.1746 7.79H25.9896V6.01H26.7366C27.1056 6.01 27.3676 6.23 27.3676 6.57C27.3676 6.91 27.1056 7.14 26.7366 7.14H26.1746V7.79ZM26.7366 6.98C26.9986 6.98 27.1836 6.83 27.1836 6.58C27.1836 6.33 26.9986 6.17 26.7366 6.17H26.1746V6.98H26.7366Z" fill="black"/>
  <path d="M31.1844 6.91C31.1844 7.81 30.4924 8.42 29.7084 8.42C28.9244 8.42 28.2324 7.81 28.2324 6.91C28.2324 6.01 28.9244 5.4 29.7084 5.4C30.4924 5.4 31.1844 6 31.1844 6.91ZM30.0374 6.91C30.0374 6.51 29.8984 6.2 29.7084 6.2C29.5184 6.2 29.3794 6.51 29.3794 6.91C29.3794 7.31 29.5184 7.62 29.7084 7.62C29.8984 7.62 30.0374 7.32 30.0374 6.91Z" fill="black"/>
  <path d="M34.1372 8.34H33.0512L31.6582 5.49H32.8052L33.5892 7.34L34.3732 5.49H35.5202L34.1372 8.34Z" fill="black"/>
  <path d="M37.5621 7.39V8.34H36.4761V5.49H37.5621V6.44H38.3461V5.49H39.4321V8.34H38.3461V7.39H37.5621Z" fill="black"/>
  <path d="M40.5181 7.1H40.1491V8.34H39.0631V5.49H40.5181C41.3021 5.49 41.9941 5.94 41.9941 6.29C41.9941 6.67 41.3021 7.1 40.5181 7.1ZM40.5181 6.3C40.7961 6.3 40.9091 6.39 40.9091 6.51C40.9091 6.62 40.7961 6.71 40.5181 6.71H40.1491V6.3H40.5181Z" fill="black"/>
  <path d="M22.9839 6.92C22.9839 7.68 22.3839 8.33 21.5449 8.33C20.7059 8.33 20.1059 7.68 20.1059 6.92C20.1059 6.16 20.7059 5.5 21.5449 5.5C22.3839 5.5 22.9839 6.16 22.9839 6.92ZM21.5449 7.61C21.9449 7.61 22.2069 7.33 22.2069 6.92C22.2069 6.5 21.9449 6.23 21.5449 6.23C21.1449 6.23 20.8829 6.5 20.8829 6.92C20.8829 7.33 21.1449 7.61 21.5449 7.61Z" fill="black"/>
</svg> 