<?xml version="1.0" encoding="UTF-8"?>
<svg width="60" height="40" viewBox="0 0 60 40" fill="none" xmlns="http://www.w3.org/2000/svg">
  <rect width="60" height="40" rx="4" fill="#F7F7F7"/>
  <path d="M37 20C37 24.4 33.4 28 29 28C24.6 28 21 24.4 21 20C21 15.6 24.6 12 29 12C33.4 12 37 15.6 37 20Z" fill="#EB001B"/>
  <path d="M39 20C39 24.4 35.4 28 31 28C26.6 28 23 24.4 23 20C23 15.6 26.6 12 31 12C35.4 12 39 15.6 39 20Z" fill="#F79E1B"/>
  <path d="M30 15.1C28.5 16.3 27.6 18.1 27.6 20C27.6 21.9 28.5 23.7 30 24.9C31.5 23.7 32.4 21.9 32.4 20C32.4 18.1 31.5 16.3 30 15.1Z" fill="#FF5F00"/>
</svg> 