<?xml version="1.0" encoding="UTF-8"?>
<svg width="60" height="40" viewBox="0 0 60 40" fill="none" xmlns="http://www.w3.org/2000/svg">
  <rect width="60" height="40" rx="4" fill="#F7F7F7"/>
  <path d="M30 12C23.4 12 18 16.5 18 22C18 27.5 23.4 32 30 32C36.6 32 42 27.5 42 22C42 16.5 36.6 12 30 12Z" fill="#FF6600"/>
  <path d="M29.2 19.5C28.6 19.5 28.2 19.9 28.2 20.3V23.5C28.2 23.9 28.5 24.3 29.2 24.3H30.9C31.5 24.3 31.9 23.9 31.9 23.5V20.3C31.9 19.9 31.5 19.5 30.9 19.5H29.2Z" fill="white"/>
  <path d="M25.8 16.5C25 16.5 24.3 17.2 24.3 18V22.8L25.6 25H34.5L35.8 22.8V18C35.8 17.2 35.1 16.5 34.3 16.5H25.8Z" stroke="white" stroke-width="1.2"/>
</svg> 