<?xml version="1.0" encoding="UTF-8"?>
<svg width="60" height="40" viewBox="0 0 60 40" fill="none" xmlns="http://www.w3.org/2000/svg">
  <rect width="60" height="40" rx="4" fill="#F7F7F7"/>
  <path d="M40.7 17.4C40.7 20.3 38.8 22.5 35.5 22.5H33.6C33.2 22.5 32.9 22.8 32.8 23.2L32.1 27.1C32.1 27.4 31.8 27.6 31.5 27.6H28.8C28.5 27.6 28.3 27.4 28.4 27.1L30.8 13.4C30.8 13.1 31.1 12.9 31.4 12.9H36.7C39.2 12.9 40.7 14.6 40.7 17.4Z" fill="#253B80"/>
  <path d="M28.2 17.4C28.2 20.3 26.3 22.5 23 22.5H21.1C20.7 22.5 20.4 22.8 20.3 23.2L19.6 27.1C19.6 27.4 19.3 27.6 19 27.6H16.3C16 27.6 15.8 27.4 15.9 27.1L18.3 13.4C18.3 13.1 18.6 12.9 18.9 12.9H24.2C26.7 12.9 28.2 14.6 28.2 17.4Z" fill="#179BD7"/>
  <path d="M36.3 17.5C36.3 16.9 35.8 16.5 35.1 16.5H33.6L33.2 18.6H34.5C35.5 18.6 36.3 18.3 36.3 17.5Z" fill="#253B80"/>
  <path d="M23.8 17.5C23.8 16.9 23.3 16.5 22.6 16.5H21.1L20.7 18.6H22C23 18.6 23.8 18.3 23.8 17.5Z" fill="#179BD7"/>
</svg> 