<?xml version="1.0" encoding="UTF-8"?>
<svg width="41" height="24" viewBox="0 0 41 24" fill="none" xmlns="http://www.w3.org/2000/svg">
  <path d="M33.3688 7.6875H31.2188C31.2188 9.91016 31.1797 11.543 30.3438 11.543C29.5078 11.543 29.3906 10.293 29.3906 7.01953C29.3906 3.76953 29.5469 2.48047 30.3438 2.48047C31.0234 2.48047 31.1406 3.42578 31.1406 5.07812H33.3688C33.3688 1.88672 32.3555 0.5 30.3438 0.5C28.2969 0.5 27.1211 2.24219 27.1211 7.01953C27.1211 11.8047 28.2578 13.5234 30.3438 13.5234C32.4102 13.5234 33.3688 11.9336 33.3688 7.6875Z" fill="white"/>
  <path d="M20.6055 4.23047H22.7383V2.29688H20.6055V4.23047ZM20.6055 13.25H22.7383V5.57812H20.6055V13.25Z" fill="white"/>
  <path d="M15.9102 5.39844H15.9805L17.3398 10.7305H14.5312L15.9102 5.39844ZM15.0156 2.29688L11.625 13.25H13.875L14.5898 11.9727H17.3008L17.9766 13.25H20.3281L16.9883 2.29688H15.0156Z" fill="white"/>
  <path d="M9.67969 2.29688H7.54688V13.25H9.67969V2.29688Z" fill="white"/>
</svg> 