<?xml version="1.0" standalone="no"?>
<!DOCTYPE svg PUBLIC "-//W3C//DTD SVG 20010904//EN"
 "http://www.w3.org/TR/2001/REC-SVG-20010904/DTD/svg10.dtd">
<svg version="1.0" xmlns="http://www.w3.org/2000/svg"
 width="3072.000000pt" height="1919.000000pt" viewBox="0 0 3072.000000 1919.000000"
 preserveAspectRatio="xMidYMid meet">
<metadata>
Created by potrace 1.16, written by Peter Selinger 2001-2019
</metadata>
<g transform="translate(0.000000,1919.000000) scale(0.100000,-0.100000)"
fill="#000000" stroke="none">
<path d="M10 9595 l0 -9595 15355 0 15355 0 0 9595 0 9595 -15355 0 -15355 0
0 -9595z m30390 -5 l0 -9300 -15014 0 c-8258 0 -15021 3 -15030 6 -15 6 -16
834 -16 9300 l0 9294 15030 0 15030 0 0 -9300z"/>
<path d="M1210 15875 l0 -1985 14065 0 14065 0 0 1985 0 1985 -14065 0 -14065
0 0 -1985z"/>
<path d="M17280 12943 c-109 -9 -355 -45 -358 -52 -2 -5 -11 -7 -21 -4 -22 6
-246 -48 -361 -87 -157 -53 -180 -62 -180 -72 0 -5 -4 -7 -9 -4 -5 4 -45 -11
-88 -33 -43 -21 -83 -40 -89 -42 -42 -16 -182 -104 -177 -112 3 -6 2 -7 -3 -4
-5 3 -37 -13 -71 -36 -156 -107 -307 -247 -418 -387 -33 -41 -63 -77 -66 -80
-12 -10 -79 -121 -79 -130 0 -6 -4 -10 -9 -10 -11 0 -17 -10 -93 -161 -103
-206 -170 -404 -212 -627 -22 -114 -32 -375 -18 -449 6 -32 16 -87 22 -121 18
-99 56 -205 126 -348 70 -144 77 -153 215 -322 133 -163 225 -249 478 -449 65
-51 322 -229 387 -268 31 -18 61 -39 149 -99 17 -11 59 -39 95 -63 36 -23 79
-51 95 -63 17 -11 66 -44 110 -73 166 -110 411 -323 468 -407 59 -87 71 -109
89 -159 16 -41 21 -82 22 -156 0 -92 -2 -105 -31 -168 -67 -142 -240 -269
-453 -331 -514 -149 -985 -81 -1580 226 -96 50 -177 94 -180 98 -3 4 -21 15
-40 25 -19 10 -55 32 -80 49 -24 17 -49 33 -55 36 -15 8 -146 98 -178 123
l-28 22 -20 -25 c-11 -14 -38 -52 -61 -85 -22 -33 -45 -61 -50 -63 -4 -2 -8
-9 -8 -16 0 -6 -13 -27 -28 -46 -16 -19 -41 -53 -55 -75 -14 -22 -42 -62 -61
-90 -20 -27 -66 -95 -103 -150 -37 -55 -71 -103 -75 -106 -4 -3 -27 -33 -50
-67 -37 -53 -120 -172 -242 -346 -16 -23 -47 -67 -70 -100 l-41 -58 30 -24
c115 -92 480 -283 730 -381 625 -244 1431 -378 2160 -360 136 4 254 12 310 22
103 19 253 52 275 62 8 3 24 8 35 10 17 3 103 32 237 79 31 11 191 89 326 159
63 32 283 185 364 252 90 74 284 264 335 328 268 333 407 610 483 965 48 221
35 541 -30 740 -36 112 -35 111 -89 221 -141 289 -436 606 -803 861 -29 21
-62 44 -73 53 -31 25 -308 207 -365 240 -51 30 -295 186 -316 202 -17 13 -47
32 -86 53 -21 11 -38 25 -38 30 0 6 -5 10 -10 10 -10 0 -94 58 -164 112 -55
43 -194 183 -225 226 -16 24 -35 60 -41 80 -6 20 -14 44 -17 52 -10 29 -2 126
18 200 42 157 150 291 294 362 209 105 572 139 800 76 228 -64 590 -261 909
-498 l58 -42 91 94 c51 52 130 134 176 184 46 49 145 152 220 229 218 224 516
536 518 543 1 4 -19 22 -45 41 -26 19 -52 40 -57 45 -6 6 -18 16 -27 21 -17
11 -136 88 -218 143 -27 17 -52 32 -55 32 -3 0 -22 11 -43 24 -119 75 -464
237 -632 297 -130 46 -196 69 -215 72 -11 2 -28 7 -37 10 -37 14 -56 19 -148
42 -212 52 -351 77 -550 95 -90 9 -504 11 -600 3z"/>
<path d="M4730 12776 c0 -111 -12 -102 140 -111 137 -8 331 -48 450 -92 332
-123 522 -320 631 -655 38 -118 45 -161 84 -528 28 -257 34 -323 40 -405 4
-44 13 -132 20 -195 8 -63 17 -153 20 -200 3 -47 10 -121 15 -165 5 -44 14
-132 20 -195 6 -63 17 -171 25 -240 8 -69 17 -159 20 -200 3 -41 12 -131 20
-200 7 -69 19 -174 25 -235 11 -112 22 -223 40 -407 6 -57 15 -148 21 -203 5
-55 16 -163 25 -240 25 -234 33 -317 39 -395 3 -41 12 -131 20 -200 8 -69 19
-177 25 -240 6 -63 15 -153 20 -200 5 -47 14 -137 20 -200 6 -63 17 -171 25
-240 8 -69 17 -159 20 -200 3 -41 10 -113 15 -160 5 -47 12 -115 15 -152 l7
-68 874 0 875 0 17 31 c9 17 52 90 95 161 42 72 77 132 77 133 0 2 18 33 40
69 22 36 40 70 40 75 0 5 6 16 13 23 6 8 18 25 26 38 8 14 37 63 64 110 27 47
58 101 69 120 11 19 40 68 64 107 24 40 44 75 44 77 0 2 34 62 76 132 42 71
88 149 102 174 14 25 33 56 42 70 10 14 32 52 49 85 17 33 46 83 63 110 37 59
89 148 131 225 16 30 35 62 42 70 6 8 23 35 37 60 59 107 302 527 376 651 45
75 82 141 82 147 0 6 6 17 13 24 7 7 42 63 76 123 35 61 72 124 82 140 10 17
37 63 59 102 23 40 45 75 51 78 5 4 9 15 9 25 0 10 4 20 8 22 4 2 19 23 34 48
14 25 42 74 63 110 20 36 46 81 57 100 11 19 42 71 68 115 25 44 86 148 135
230 48 83 109 186 135 230 26 44 50 87 54 95 3 8 24 44 46 80 22 36 53 90 70
120 17 30 36 64 43 75 45 72 79 130 109 186 44 83 60 111 75 129 6 8 28 44 48
80 60 105 71 123 116 201 24 41 51 86 59 101 8 15 42 73 75 129 33 57 70 121
83 143 13 23 42 73 65 111 23 39 51 86 62 106 32 55 135 232 146 249 16 26
134 230 206 355 37 66 72 127 78 136 20 32 55 98 55 104 0 3 -391 5 -869 5
l-868 0 -49 -85 c-27 -47 -59 -102 -71 -123 -12 -20 -32 -55 -44 -77 -44 -82
-104 -180 -111 -183 -5 -2 -8 -7 -8 -12 0 -5 -20 -43 -45 -84 -25 -42 -45 -81
-45 -86 0 -5 -6 -15 -12 -22 -17 -18 -31 -41 -68 -108 -36 -65 -48 -87 -116
-200 -28 -47 -62 -105 -75 -130 -13 -25 -27 -46 -31 -48 -5 -2 -8 -9 -8 -16 0
-6 -16 -35 -35 -64 -19 -29 -47 -76 -63 -105 -42 -74 -75 -131 -82 -137 -5 -5
-54 -95 -74 -137 -6 -13 -14 -23 -18 -23 -5 0 -8 -5 -8 -12 0 -6 -6 -19 -14
-27 -7 -9 -29 -45 -48 -81 -20 -36 -61 -106 -92 -157 -31 -51 -56 -95 -56 -98
0 -3 -15 -30 -34 -59 -18 -29 -37 -62 -40 -74 -4 -12 -13 -28 -19 -34 -7 -7
-33 -49 -58 -93 -25 -44 -59 -102 -76 -130 -17 -27 -48 -81 -69 -119 -22 -38
-48 -83 -58 -100 -10 -17 -30 -51 -44 -76 -26 -47 -184 -317 -211 -360 -8 -14
-23 -38 -31 -55 -41 -74 -56 -100 -67 -113 -7 -7 -13 -18 -13 -24 0 -5 -14
-30 -30 -55 -17 -24 -40 -61 -51 -81 -49 -89 -85 -151 -92 -159 -5 -4 -15 -21
-23 -38 -8 -16 -23 -43 -33 -60 -11 -16 -37 -62 -58 -102 -20 -40 -45 -82 -54
-95 -17 -21 -17 -20 -23 48 -4 38 -13 125 -21 194 -8 69 -17 159 -20 200 -3
41 -12 131 -20 200 -8 69 -19 175 -25 235 -26 271 -43 434 -65 640 -17 166
-41 404 -60 605 -23 245 -34 349 -50 500 -8 80 -22 215 -30 300 -8 85 -19 196
-25 245 -14 133 -28 271 -45 450 -9 88 -18 175 -21 193 l-6 32 -1449 0 -1449
0 0 -94z"/>
<path d="M12950 12848 c-8 -22 -38 -113 -210 -648 -46 -140 -114 -352 -152
-470 -39 -118 -79 -244 -91 -280 -11 -36 -26 -78 -33 -95 -23 -59 -45 -146
-38 -157 4 -6 3 -8 -3 -5 -5 3 -28 -54 -53 -131 -23 -75 -64 -202 -90 -282
-27 -80 -94 -287 -150 -460 -56 -173 -123 -380 -150 -460 -26 -80 -67 -206
-90 -280 -24 -74 -65 -200 -91 -280 -26 -80 -91 -280 -145 -445 -53 -165 -119
-367 -146 -450 -26 -82 -46 -156 -43 -164 3 -9 3 -12 -1 -8 -5 4 -25 -45 -46
-110 -21 -65 -54 -165 -72 -223 -78 -239 -271 -835 -317 -975 -104 -320 -136
-421 -143 -448 l-6 -27 845 2 846 3 28 85 c42 127 63 194 65 205 1 6 4 15 8
20 6 11 89 271 140 440 17 55 34 109 39 120 4 11 31 90 58 175 28 85 58 175
67 200 8 25 27 81 41 125 14 44 48 149 75 232 27 84 51 158 52 165 2 7 6 20 9
28 3 8 24 74 47 145 23 72 60 184 81 249 21 66 39 127 39 136 0 9 4 20 9 25
16 18 163 486 157 501 -3 8 -2 12 3 9 12 -7 44 102 35 117 -4 6 -3 8 3 5 11
-7 86 219 78 234 -4 5 -2 9 4 9 5 0 14 15 19 33 6 17 47 145 91 283 45 138 81
256 81 263 0 6 4 19 10 29 10 17 96 278 210 632 34 107 81 254 105 325 23 72
68 213 100 315 32 102 61 194 66 205 19 46 203 614 214 660 1 6 5 17 8 25 24
57 57 172 52 180 -3 6 -2 10 4 10 5 0 23 45 40 100 17 55 34 106 37 115 6 13
-84 15 -840 15 l-846 0 -10 -22z"/>
<path d="M22265 12632 c-33 -64 -62 -119 -65 -122 -3 -3 -28 -50 -56 -105 -28
-55 -77 -149 -109 -210 -31 -60 -98 -189 -148 -285 -49 -96 -110 -213 -135
-260 -25 -47 -71 -134 -102 -195 -31 -60 -84 -160 -116 -221 -61 -115 -233
-448 -268 -519 -11 -22 -22 -42 -25 -45 -3 -3 -30 -54 -60 -115 -30 -60 -64
-126 -76 -145 -12 -19 -77 -143 -145 -275 -175 -341 -189 -369 -198 -380 -4
-6 -27 -51 -52 -100 -24 -50 -63 -124 -86 -165 -22 -41 -89 -169 -149 -285
-59 -115 -135 -262 -168 -325 -33 -63 -76 -146 -95 -185 -19 -38 -52 -99 -72
-135 -20 -36 -88 -164 -150 -285 -62 -121 -135 -263 -163 -315 -27 -52 -72
-138 -99 -190 -28 -52 -62 -117 -78 -145 -15 -27 -76 -144 -135 -260 -114
-223 -199 -386 -273 -525 -24 -47 -76 -146 -114 -220 -39 -74 -74 -139 -79
-144 -5 -6 -9 -14 -9 -18 0 -4 413 -8 918 -8 l918 0 239 480 240 480 1071 0
1072 0 6 -52 c3 -29 13 -150 21 -268 9 -118 21 -271 26 -340 5 -69 13 -164 16
-213 l6 -87 850 0 849 0 -6 53 c-3 28 -10 113 -16 187 -5 74 -19 250 -30 390
-10 140 -26 350 -35 465 -8 116 -27 354 -40 530 -14 176 -32 408 -40 515 -8
107 -24 312 -35 455 -11 143 -29 379 -40 525 -11 146 -29 382 -40 525 -11 143
-27 348 -35 455 -8 107 -24 314 -35 460 -11 146 -27 353 -35 460 -8 107 -24
314 -35 460 -25 319 -47 613 -56 733 l-6 87 -1232 0 -1231 0 -60 -118z m959
-1604 c4 -51 13 -176 21 -278 8 -102 19 -252 25 -335 6 -82 13 -172 16 -200 4
-49 15 -194 34 -475 6 -80 15 -192 20 -250 5 -58 14 -170 20 -250 5 -80 12
-170 15 -200 4 -54 20 -250 30 -379 2 -35 8 -92 11 -127 5 -50 4 -65 -7 -69
-8 -3 -355 -4 -771 -3 l-758 3 660 1322 c363 727 660 1327 660 1333 0 6 4 9 9
6 5 -3 12 -48 15 -98z"/>
<path d="M25408 12739 c-58 -9 -147 -57 -188 -101 -17 -18 -46 -62 -63 -98
-28 -57 -32 -75 -32 -145 1 -105 32 -179 109 -256 15 -16 35 -29 44 -29 8 0
12 -3 8 -7 -11 -11 95 -51 156 -58 40 -5 73 -2 115 10 115 33 179 87 230 194
33 69 35 78 31 155 -3 61 -10 95 -30 138 -27 59 -95 135 -138 154 -98 46 -159
57 -242 43z m197 -82 c92 -47 146 -126 160 -233 8 -59 -16 -161 -47 -196 -11
-13 -30 -35 -43 -50 -37 -44 -100 -70 -185 -75 -69 -5 -84 -3 -136 21 -77 35
-110 68 -145 141 -24 49 -29 73 -29 133 0 62 5 82 30 131 36 69 59 92 125 124
75 37 75 37 150 33 51 -2 84 -10 120 -29z"/>
<path d="M25332 12383 c3 -205 3 -208 25 -211 20 -3 22 2 28 87 l8 91 32 0
c44 0 68 -22 112 -105 34 -62 42 -70 71 -73 17 -2 32 0 32 5 0 12 -75 131 -99
156 l-20 23 33 18 c34 18 66 70 66 107 0 31 -39 79 -76 95 -20 8 -69 14 -124
14 l-90 0 2 -207z m218 115 c13 -25 13 -31 0 -55 -14 -24 -24 -29 -84 -37 -78
-11 -86 -6 -86 61 0 67 1 69 82 63 66 -5 74 -7 88 -32z"/>
<path d="M28585 2229 c-136 -67 -204 -178 -205 -337 0 -59 38 -155 84 -209 36
-43 100 -85 156 -103 53 -18 187 -20 221 -4 113 53 124 61 166 118 25 33 47
73 50 88 3 16 10 31 14 34 5 3 9 42 9 88 0 116 -31 192 -108 263 -31 29 -68
56 -82 61 -74 27 -103 32 -171 31 -61 0 -84 -5 -134 -30z m231 -35 c30 -8 60
-21 67 -28 7 -7 22 -18 34 -25 12 -6 39 -37 60 -68 35 -54 38 -63 41 -143 3
-69 0 -94 -17 -132 -25 -59 -71 -110 -130 -145 -41 -25 -56 -28 -136 -28 -75
0 -98 4 -135 23 -106 55 -157 140 -162 269 -2 44 0 79 4 77 3 -2 12 12 19 33
15 46 92 129 139 150 31 14 94 28 143 32 11 0 43 -6 73 -15z"/>
<path d="M28590 1910 c0 -110 -1 -203 -2 -207 -2 -5 9 -9 25 -11 26 -3 27 -2
27 50 0 29 3 70 6 91 6 34 9 37 39 37 20 0 38 -8 51 -22 26 -31 64 -86 64 -94
0 -3 9 -19 21 -35 14 -21 29 -29 50 -29 16 0 29 2 29 4 0 10 -73 126 -86 137
-8 6 -14 18 -14 25 0 8 -6 14 -12 14 -7 1 0 8 16 16 55 30 77 64 72 113 -7 81
-62 110 -208 111 l-78 0 0 -200z m200 120 c31 -31 26 -76 -10 -95 -30 -15
-126 -21 -133 -7 -2 4 -1 33 1 65 l4 57 59 0 c46 0 64 -5 79 -20z"/>
</g>
</svg>
