<?xml version="1.0" encoding="UTF-8"?>
<svg width="60" height="40" viewBox="0 0 60 40" fill="none" xmlns="http://www.w3.org/2000/svg">
  <rect width="60" height="40" rx="4" fill="#F7F7F7"/>
  <path d="M23.6 25.5H19.9L22.2 14.5H25.9L23.6 25.5Z" fill="#00579F"/>
  <path d="M37 14.8C36.3 14.5 35.2 14.2 33.9 14.2C30.8 14.2 28.6 15.8 28.6 18.2C28.6 20 30.2 20.9 31.4 21.5C32.6 22.1 33 22.5 33 23C33 23.8 32 24.1 31.1 24.1C29.8 24.1 29.1 23.9 28 23.5L27.6 23.3L27.2 26.1C28 26.5 29.5 26.8 31 26.8C34.3 26.8 36.4 25.2 36.4 22.6C36.4 21.2 35.6 20.1 33.8 19.3C32.7 18.8 32 18.4 32 17.8C32 17.3 32.6 16.8 33.8 16.8C34.8 16.8 35.6 17 36.2 17.3L36.5 17.4L37 14.8Z" fill="#00579F"/>
  <path d="M41.6 21.3C42 20.3 43.3 17.1 43.3 17.1C43.3 17.1 43.5 16.6 43.6 16.3L43.8 17C43.8 17 44.6 20.4 44.8 21.3H41.6ZM46.4 14.5H43.6C42.8 14.5 42.2 14.7 41.8 15.5L36.5 25.5H39.8C39.8 25.5 40.4 24 40.5 23.7H45C45.1 24.1 45.4 25.5 45.4 25.5H48.3L46.4 14.5Z" fill="#00579F"/>
  <path d="M18 14.5L15 22.1L14.7 20.9C14.1 19.2 12.2 17.3 10 16.3L12.8 25.5H16.1L21 14.5H18Z" fill="#00579F"/>
</svg> 