<svg width="24" height="24" viewBox="0 0 24 24" fill="none" xmlns="http://www.w3.org/2000/svg">
  <path d="M21 4H3C1.89 4 1 4.89 1 6V18C1 19.11 1.89 20 3 20H21C22.11 20 23 19.11 23 18V6C23 4.89 22.11 4 21 4ZM21 18H3V6H21V18Z" fill="#0066CC"/>
  <path d="M12 14.5C13.38 14.5 14.5 13.38 14.5 12C14.5 10.62 13.38 9.5 12 9.5C10.62 9.5 9.5 10.62 9.5 12C9.5 13.38 10.62 14.5 12 14.5Z" fill="#0066CC"/>
  <path d="M6 10H7.5V14H6V10Z" fill="#0066CC"/>
  <path d="M16.5 10H18V14H16.5V10Z" fill="#0066CC"/>
</svg> 