<svg width="24" height="24" viewBox="0 0 24 24" fill="none" xmlns="http://www.w3.org/2000/svg">
  <path d="M20 12C18.6127 12 17.4043 12.9502 16.0696 13.9869C15.1292 14.7105 14.1646 15.4519 13 15.874V6.83709C11.9037 7.20353 11 8.43195 11 10C11 13.3137 13.6863 16 17 16C17.5425 16 18.0636 15.9223 18.5563 15.7792C19.4301 15.521 20.4017 15.1777 21.215 15.6103C22.0284 16.043 22.3242 17.0456 22 18C21.6758 18.9544 20.9992 20 18.6437 20C15.4739 20 11.5261 18.1683 9.20749 17.4344C8.08321 17.0499 7.20102 17 5.99999 17C4.91639 17 3.91896 17.2333 3 17.7471V4.31231C4.39187 3.46043 5.99999 3 7.99999 3C10.4826 3 12.7025 3.75471 15.0221 4.54941L15.0269 4.55073C17.2626 5.317 19.592 6.11538 22 6.23736V11.4368C21.4119 11.797 20.7642 12 20 12Z" fill="currentColor"/>
</svg> 